<svg xmlns="http://www.w3.org/2000/svg" viewBox="0 0 576 512" width="32" height="32" fill="white">
  <path d="M549.655 124.083c-6.281-23.65-24.777-42.239-48.404-48.515C456.93 64 288 64 288 64S119.07 64 74.749 75.568c-23.627 6.276-42.123 24.865-48.404 48.515C16 169.4 16 256 16 256s0 86.6 10.345 131.917c6.281 23.65 24.777 42.239 48.404 48.515C119.07 448 288 448 288 448s168.93 0 213.251-11.568c23.627-6.276 42.123-24.865 48.404-48.515C560 342.6 560 256 560 256s0-86.6-10.345-131.917zM232 336V176l142 80-142 80z"/>
</svg>
